<svg width="47" height="51" viewBox="0 0 47 51" fill="none" xmlns="http://www.w3.org/2000/svg">
<path d="M30.1964 44.3392C30.7124 43.0117 30.9151 41.5594 31.033 40.1191C31.1576 38.681 31.2258 37.2211 31.604 35.8365C31.9386 34.4322 32.7273 33.2267 33.7399 32.0035C34.7297 30.7815 35.9278 29.5628 36.7981 27.9528C37.6471 26.3351 38.0545 24.4685 37.9941 22.6139C37.8734 18.9021 36.344 15.201 33.693 12.3205C33.0286 11.5993 32.2709 10.9702 31.4701 10.4075C31.0455 10.1655 30.6365 9.87378 30.1997 9.68048L28.8979 9.08764C27.1207 8.4088 25.2601 8.05518 23.4261 8.00825C21.5905 7.94686 19.7819 8.23047 18.108 8.78576C16.4396 9.34436 14.8582 10.1077 13.5293 11.1581C12.2046 12.2005 11.0372 13.3968 10.1826 14.7565C9.33717 16.115 8.69667 17.5439 8.34179 19.0076C7.57368 21.9546 8.18908 24.9076 9.30521 27.1425C10.4135 29.4155 11.8733 31.1521 13.1632 32.6067C14.4841 33.9728 15.0622 35.493 15.4333 36.782C15.7915 38.0719 15.9335 39.1201 16.0517 39.8251C16.1631 40.5328 16.2331 40.9065 16.2859 40.9029C16.3308 40.8999 16.3574 40.5719 16.3505 39.9742C17.0628 40.5288 19.736 41.5782 23.1498 41.6546C26.24 41.7454 28.7696 41.008 29.77 40.4841C29.7284 41.0219 29.6762 41.549 29.595 42.0541C29.2061 41.8935 28.3127 42.0544 27.294 42.2317C26.0726 42.4615 25.0163 42.6487 24.9585 43.0615C24.892 43.4577 26.0738 43.9625 27.5586 43.6906C28.402 43.5394 29.056 43.1883 29.4357 42.8491C29.3505 43.2213 29.2528 43.5853 29.127 43.9326C29.0676 44.0896 28.9948 44.2334 28.9281 44.3834C28.5088 44.5739 27.9994 44.8661 27.4936 45.1101C26.9916 45.3374 26.516 45.4562 26.1466 45.5191C25.7783 45.5893 25.4709 45.598 25.357 45.7748C25.2466 45.9338 25.4115 46.3047 25.9528 46.5495C26.2519 46.6888 26.655 46.7451 27.087 46.7131C25.2279 47.9587 22.9231 47.9534 21.1793 47.4853C20.2913 47.2438 19.4861 46.8897 18.856 46.4447C18.216 46.0018 17.7698 45.4328 17.4487 44.8745C16.8198 43.735 16.6719 42.6667 16.5299 41.9765C16.4053 41.2741 16.3399 40.8989 16.2859 40.9029C16.2379 40.9065 16.2032 41.2855 16.2328 42.0102C16.2854 42.7253 16.327 43.8321 16.9365 45.1406C17.2493 45.7816 17.7267 46.4666 18.4293 47.0084C18.8996 47.3765 19.4608 47.6667 20.0574 47.9234C20.0241 48.1893 20.0521 48.5459 20.2235 48.9749C20.5789 49.8851 21.7263 50.9982 23.3804 51C24.995 50.9658 26.1256 49.9396 26.5743 49.1367C26.8518 48.6543 26.9366 48.2613 26.933 47.9919C27.1895 47.8704 27.4436 47.7375 27.6889 47.5736C28.8393 46.8737 29.6853 45.6375 30.1964 44.3392ZM20.2765 39.9869C20.4106 38.826 20.5267 37.1647 20.5546 35.5278C20.5878 34.3375 20.5459 32.9738 20.3638 31.491C20.2892 30.7503 20.2108 29.9743 20.1294 29.1658C20.1101 28.9449 20.1142 28.7113 20.1256 28.471C20.9006 28.1029 21.3083 27.8467 21.7694 27.5946C22.0058 27.4657 22.3206 27.2755 22.5578 27.0971C23.5521 26.3589 24.2898 25.5664 25.1178 25.276C25.9153 24.97 26.9338 25.087 27.5395 25.5459C27.6742 25.6436 27.7825 25.7658 27.8807 25.8944C27.5778 25.7709 27.2577 25.7219 26.9929 25.7438C26.3711 25.6968 25.6799 26.0515 25.2984 26.5497C24.8945 27.0375 24.6756 27.7676 24.8666 28.4616C25.0493 29.1199 25.5181 29.7206 26.2704 29.9616C26.7491 30.0984 27.193 30.0263 27.5809 29.8787C27.4454 30.3822 27.292 30.8764 27.121 31.3459C26.8764 32.0169 26.5759 32.6892 26.3861 33.366C25.8891 35.0554 25.807 36.7141 26.051 38.3971C26.1659 39.1351 26.2976 39.7058 26.4171 40.1229C24.324 40.236 22.4644 40.2062 20.2765 39.9869ZM18.9037 27.4003C17.9887 27.7711 17.0243 27.8612 16.2113 27.6095C16.0238 27.5476 15.8691 27.466 15.7544 27.3688C15.6223 27.243 15.4975 27.1151 15.4176 26.9609C14.8838 26.0066 15.541 24.5505 16.571 24.1357C17.2584 23.8369 17.9248 24.0203 18.3987 24.5751C18.8834 25.1306 19.0399 25.8693 19.026 26.6826C19.0247 26.9025 19.0138 27.1281 19.0006 27.3569C18.9684 27.3701 18.9359 27.3876 18.9037 27.4003ZM26.6555 28.6506C26.4564 28.6042 26.2271 28.3665 26.1558 28.1093C26.0807 27.8734 26.1439 27.5918 26.3204 27.3592C26.5084 27.1301 26.7174 26.9931 27.0053 27.0116C27.3736 26.983 27.5489 27.0875 27.6793 27.2288C27.8077 27.3599 27.868 27.6593 27.8777 27.9756C27.5159 28.4284 26.9188 28.7635 26.6555 28.6506ZM26.7481 40.1036C26.7123 39.6739 26.6611 39.0879 26.6258 38.3446C26.5654 36.7404 26.7235 35.2363 27.2833 33.6567C27.4878 33.0514 27.7985 32.4423 28.0966 31.73C28.4815 30.803 28.8361 29.8071 29.0012 28.812C29.1841 28.5771 29.3418 28.3173 29.4537 28.0319C29.9831 26.793 29.5344 25.2029 28.4127 24.3848C27.2881 23.5654 25.8816 23.4482 24.6112 23.8907C23.3315 24.3704 22.5185 25.3112 21.6877 25.8965C21.3282 26.1603 21.1588 26.2329 20.3136 26.7128C20.293 26.7242 20.2733 26.7336 20.253 26.7448C20.2535 26.7333 20.2547 26.7227 20.2552 26.7113C20.3075 25.7963 20.1431 24.6261 19.3989 23.7387C19.0384 23.2973 18.5285 22.9112 17.9078 22.7423C17.2858 22.5672 16.6225 22.6418 16.053 22.8714C14.8917 23.3366 14.063 24.4328 13.8509 25.6857C13.7431 26.315 13.8197 27.0301 14.1586 27.6517C14.3222 27.9652 14.5589 28.231 14.8136 28.4652C15.1015 28.7143 15.4302 28.8782 15.7486 28.9865C16.8231 29.3371 17.9522 29.2412 18.9699 28.9233C18.9763 29.0415 18.9768 29.1585 18.9907 29.2777C19.1051 30.0798 19.2147 30.8497 19.3195 31.5844C19.567 33.0458 19.6802 34.3687 19.7258 35.5415C19.7677 36.7168 19.804 37.7289 19.8336 38.5564C19.8489 39.1056 19.8654 39.5658 19.8844 39.9471C18.114 39.7561 16.8044 39.5295 16.3414 39.6112C16.2764 37.8335 15.9992 36.0539 15.2945 34.4218C14.9615 33.6338 14.4283 32.8079 13.7931 32.0674C12.5788 30.5839 11.2293 28.85 10.2549 26.6986C9.27503 24.571 8.79712 21.951 9.53427 19.3072C9.87977 17.9879 10.4911 16.6895 11.2727 15.4722C12.0641 14.2505 13.1391 13.1837 14.3499 12.2502C15.5649 11.3091 17.0146 10.632 18.5384 10.1348C20.0675 9.64065 21.7194 9.39306 23.3901 9.46054C26.6946 9.58636 30.2591 10.7041 32.6129 13.3362C35.0024 15.9199 36.4252 19.3488 36.5419 22.6494C36.6058 24.3026 36.2525 25.9086 35.5475 27.2884C34.4765 29.3343 32.4819 31.0137 31.2542 33.1909C30.8319 33.9213 30.5353 34.7269 30.3425 35.5065C29.9496 37.0519 29.9075 38.5491 29.8126 39.9385C29.2518 39.9073 28.1577 40.0191 26.7481 40.1036ZM25.754 48.4838C25.2132 48.9696 24.3403 49.5051 23.3639 49.5173C22.419 49.5282 21.5637 48.9599 21.1301 48.4485C21.0845 48.3973 21.0548 48.3496 21.0155 48.2991C22.6605 48.7911 24.2604 48.8343 25.8478 48.3965C25.8146 48.4265 25.789 48.4533 25.754 48.4838Z" fill="#AB835F"/>
<path d="M3.65143 33.0022C2.60279 33.7479 1.8411 34.5273 2.02839 34.8624C2.21191 35.1928 3.3333 34.9205 4.4502 34.1274C5.56875 33.3366 6.19652 32.3686 5.94475 32.0863C5.69015 31.7991 4.70267 32.26 3.65143 33.0022Z" fill="#AB835F"/>
<path d="M2.4208 22.9406C3.78117 23.1271 4.93479 22.8595 4.99742 22.344C5.06004 21.8285 3.97633 21.2542 2.57673 21.0622C1.17739 20.8702 0.0237612 21.1378 0.000371677 21.6588C-0.0230178 22.1795 1.06044 22.7541 2.4208 22.9406Z" fill="#AB835F"/>
<path d="M3.13725 14.1654C3.89243 14.8464 4.65165 15.2198 4.91862 14.8613C5.1832 14.5096 4.78835 13.4781 3.9422 12.7134C3.09772 11.9459 2.2068 11.8104 2.03414 12.2456C1.85791 12.6863 2.3847 13.4796 3.13725 14.1654Z" fill="#AB835F"/>
<path d="M13.8645 6.95032C14.208 6.70674 13.8759 5.63595 13.1224 4.55886C12.3689 3.48178 11.4793 2.80611 11.1355 3.04968C10.792 3.29326 11.1241 4.36405 11.8776 5.44114C12.6311 6.51822 13.5207 7.19389 13.8645 6.95032Z" fill="#AB835F"/>
<path d="M23.9918 2.51983C24.0459 1.18736 23.8353 0.0661352 23.2884 0.0026364C22.7511 -0.0611123 22.0644 1.03886 22.0049 2.47334C21.9402 3.90781 22.5307 5.03778 23.0721 4.99903C23.6234 4.96128 23.9306 3.85231 23.9918 2.51983Z" fill="#AB835F"/>
<path d="M34.5583 5.52084C35.6515 4.42509 36.218 3.27754 35.922 3.04481C35.6225 2.80816 34.6059 3.53606 33.5567 4.58738C32.5101 5.64101 31.7966 6.65136 32.0521 6.93197C32.3038 7.20936 33.4672 6.61867 34.5583 5.52084Z" fill="#AB835F"/>
<path d="M39.0142 14.8516C39.1744 15.2104 40.6409 14.8962 42.29 14.1497C43.9389 13.4035 45.1459 12.5074 44.9857 12.1486C44.8258 11.7895 43.3591 12.1037 41.7102 12.8502C40.0613 13.5966 38.8543 14.4925 39.0142 14.8516Z" fill="#AB835F"/>
<path d="M42.0047 24.5945C41.9191 25.1205 43.0129 25.9363 44.4748 25.9957C45.9363 26.062 47.0617 25.3415 46.9974 24.8091C46.9356 24.2611 45.829 24.0747 44.5151 24.0119C43.2012 23.962 42.0889 24.0527 42.0047 24.5945Z" fill="#AB835F"/>
<path d="M40.0721 34.1053C39.7842 34.4147 40.3792 35.3928 41.4946 36.1733C42.6081 36.9565 43.7503 37.1977 43.9621 36.8347C44.1777 36.4674 43.4479 35.6702 42.4108 34.9399C41.3712 34.2133 40.3632 33.7909 40.0721 34.1053Z" fill="#AB835F"/>
<path d="M32.7165 19.8539C33.3573 21.1394 33.6173 22.0315 33.8364 21.9992C34.0209 21.9795 34.1344 21 33.6967 19.4874C33.273 17.9913 32.1882 15.9785 30.2684 14.4155C28.3486 12.8527 26.1292 12.1751 24.5488 12.0399C22.9496 11.894 21.9862 12.1815 22.0001 12.3629C22.0078 12.5796 22.9512 12.6673 24.3592 13.05C25.7623 13.423 27.6441 14.1692 29.3194 15.5322C30.9937 16.8962 32.0861 18.5717 32.7165 19.8539Z" fill="#AB835F"/>
</svg>
