<svg width="523" height="151" viewBox="0 0 523 151" fill="none" xmlns="http://www.w3.org/2000/svg">
<path fill-rule="evenodd" clip-rule="evenodd" d="M130 121V127L305 127V121L130 121Z" fill="white"/>
<path fill-rule="evenodd" clip-rule="evenodd" d="M130 121V127L305 127V121L130 121Z" fill="#AB835F"/>
<path fill-rule="evenodd" clip-rule="evenodd" d="M419 121V127L523 127V121L419 121Z" fill="white"/>
<path fill-rule="evenodd" clip-rule="evenodd" d="M419 121V127L523 127V121L419 121Z" fill="#AB835F"/>
<path fill-rule="evenodd" clip-rule="evenodd" d="M259.521 110.443C259.295 111.002 258.046 111.789 255.74 112.804C252.967 113.975 251.459 114.674 251.199 114.901C250.366 114.901 249.084 115.006 247.333 115.198C245.565 115.391 244.333 115.495 243.588 115.495C222.317 115.495 205.968 110.478 194.578 100.425C191.926 98.0651 187.817 92.9415 182.218 85.074C180.224 82.3291 177.45 77.6089 173.896 70.9125C170.567 64.7588 167.724 60.0724 165.384 56.8914C164.118 55.7015 162.298 53.8492 159.923 51.3135C156.109 53.8492 154.098 55.3001 153.908 55.6668C153.716 56.0519 153.613 58.4812 153.613 62.9747C153.613 63.9368 153.509 66.1394 153.283 69.5665C153.058 72.9927 152.954 75.1957 152.954 76.1578C152.954 85.4763 155.19 90.2325 159.645 90.4589C159.559 91.2811 159.177 92.05 158.484 92.7495L133 92.7495V89.7245C133.953 88.8504 134.941 88.011 135.981 87.1727C137.108 86.0881 137.802 84.9699 138.062 83.833C139.275 81.945 139.882 69.6015 139.882 46.7852C139.882 37.1346 139.362 30.5428 138.322 27.0462C137.941 25.7878 136.224 23.8462 133.19 21.2237L133.19 18.2697L158.796 18.2697C159.489 18.8815 159.871 19.6155 159.905 20.4896C157.617 21.0146 155.849 22.8323 154.636 25.9452C153.648 28.3399 153.144 30.9278 153.144 33.6726C153.144 35.7355 153.231 38.8485 153.404 43.0435L153.682 52.362C156.923 50.3871 161.258 45.8059 166.684 38.586C172.405 31.0329 175.266 25.648 175.266 22.4658C175.266 21.504 175.04 20.6657 174.607 19.9659C177.034 19.5288 181.663 19.3185 188.458 19.3185C190.418 19.3185 192.897 18.7946 195.931 17.7446L196.45 18.9173C193.503 21.9769 189.048 26.5916 183.067 32.7641C177.987 37.8343 173.133 41.9772 168.505 45.2116C171.972 49.2851 175.699 54.9328 179.686 62.1885C184.835 71.5073 188.181 77.2771 189.69 79.4972C193.903 85.7562 198.583 90.7559 203.732 94.5153C218.901 105.653 234.209 111.23 249.638 111.23C251.286 111.23 254.579 110.967 259.521 110.443ZM251.858 69.7933C251.858 80.022 247.437 86.9796 238.596 90.6522C235.215 92.0501 233.1 92.7495 232.233 92.7495L221.172 92.7495C217.498 92.7495 213.943 90.3722 210.51 85.5988C207.216 81.1055 205.57 76.9092 205.57 73.0102C205.57 67.7654 206.853 63.2027 209.402 59.3034C211.967 55.4217 215.625 52.6245 220.393 50.9109C224.206 49.513 227.171 48.8136 229.303 48.8136C235.024 48.8136 240.208 50.9639 244.871 55.2642C249.535 59.583 251.858 64.4257 251.858 69.7933ZM241.456 71.4377C241.456 67.0136 240.295 62.888 237.954 59.0412C235.267 54.7233 231.834 52.5553 227.673 52.5553C223.999 52.5553 221.068 55.003 218.901 59.8978C217.167 63.7796 216.301 67.8531 216.301 72.0842C216.301 75.3183 216.717 77.8009 217.532 79.4972C218.832 82.1716 220.444 84.445 222.351 86.3158C224.727 88.728 227.119 89.9177 229.494 89.9177C229.806 89.9177 230.447 89.8644 231.453 89.7591C232.441 89.6553 233.117 89.6019 233.464 89.6019C233.984 89.6019 235.129 88.5012 236.914 86.3158C239.948 82.6089 241.456 77.6436 241.456 71.4377ZM260.891 92.1554C259.591 91.858 258.498 91.8927 257.614 92.2602C256.713 92.6268 256.036 93.0294 255.569 93.4665L254.719 91.1756L260.561 88.8853C260.821 87.5219 261.03 86.2983 261.186 85.179C261.341 84.0598 261.463 82.9233 261.566 81.7706C261.671 80.6164 261.758 79.3744 261.792 78.0633C261.844 76.7519 261.861 75.1955 261.861 73.4125C261.861 70.1265 261.809 66.787 261.705 63.3426C261.602 59.9153 261.497 56.4544 261.41 52.9578C261.115 51.9436 260.648 51.0162 260.006 50.1418C259.382 49.2678 258.567 48.5163 257.58 47.9045V46.6627C264.739 44.9492 269.542 41.8026 272.021 37.2214H273.511V39.4427C273.511 40.1411 273.372 40.9632 273.112 41.9079C272.853 42.8515 272.661 43.9536 272.54 45.2116C272.488 45.4392 272.454 45.6315 272.437 45.806C272.42 45.9817 272.401 46.1737 272.401 46.4001C273.321 45.9989 274.083 45.7017 274.743 45.4741C275.383 45.2647 276.024 45.1074 276.632 44.9848C277.239 44.8795 277.88 44.8103 278.539 44.7918C279.215 44.7745 280.046 44.7569 281.052 44.7569C284.346 44.7569 286.999 45.3166 289.01 46.4362C291.02 47.5543 292.72 49.2158 294.107 51.4532C295.025 52.8523 295.563 53.9358 295.702 54.6873C295.858 55.4575 295.927 56.1919 295.927 56.8914C295.927 58.761 295.286 60.5452 293.986 62.2056C292.685 63.8661 291.073 65.3174 289.166 66.5939C291.818 67.7654 293.917 69.0593 295.441 70.4584C296.985 71.8564 298.146 73.3432 298.926 74.9157C299.707 76.4893 300.192 78.1337 300.365 79.829C300.538 81.5426 300.574 83.2912 300.486 85.074C300.365 87.3128 299.481 89.0782 297.886 90.355C296.274 91.6476 294.246 92.6097 291.767 93.2386C289.305 93.8862 286.566 94.2354 283.584 94.2885C280.584 94.358 277.638 94.2885 274.743 94.0606C271.829 93.8515 269.143 93.5543 266.681 93.1865C264.202 92.8013 262.277 92.4698 260.891 92.1554ZM272.87 84.357C273.165 87.8897 273.945 90.1097 275.21 90.9837C275.904 91.0706 276.735 91.1236 277.741 91.1409C278.729 91.1582 279.926 91.1756 281.312 91.1756C282.907 91.1756 284.329 90.9135 285.56 90.3896C286.791 89.8646 287.831 89.1822 288.68 88.3266C289.53 87.4699 290.136 86.5252 290.535 85.5112C290.917 84.4796 291.073 83.4311 290.986 82.3822C290.518 77.4516 288.733 74.0244 285.664 72.136C282.595 70.2304 277.984 69.9506 271.829 71.3151C271.882 72.9236 271.934 74.3215 271.986 75.4754C272.055 76.6296 272.142 77.6968 272.245 78.6577C272.367 79.6197 272.454 80.546 272.54 81.4373C272.627 82.329 272.731 83.3084 272.87 84.357ZM271.69 63.3077V67.9585C272.905 67.8705 274.015 67.7653 275.002 67.6427C276.007 67.5028 276.927 67.3815 277.759 67.2762C278.608 67.1709 279.44 67.0655 280.238 66.9443C281.035 66.839 281.867 66.7337 282.734 66.6468C284.122 65.9995 285.248 65.108 286.08 64.0061C286.93 62.8879 287.363 61.6288 287.363 60.2297C287.363 58.7798 287.103 57.4326 286.6 56.1561C286.114 54.8981 285.439 53.7439 284.589 52.7299C283.74 51.6986 282.769 50.8241 281.66 50.1072C280.567 49.373 279.406 48.8654 278.193 48.551C277.446 48.3762 276.528 48.3763 275.401 48.5338C274.274 48.6737 273.182 48.8655 272.142 49.0761C271.968 51.4361 271.847 53.7961 271.795 56.1561C271.726 58.5173 271.69 60.9119 271.69 63.3077ZM400.064 129.85C400.064 136.458 392.814 143.669 387.47 146.185C383.069 148.256 379.321 150.701 370.873 150.969C357.046 151.409 346.369 147.133 334.883 139.431C323.088 131.521 315.049 121.091 310.768 108.153C310.16 106.457 309.293 103.887 308.167 100.477C307.248 97.6452 306.797 95.0226 306.797 92.6095C306.797 77.8887 311.738 63.4475 321.62 49.2852C331.501 35.124 343.1 25.8918 356.414 21.6088C355.893 21.4862 355.304 21.4173 354.663 21.4173C348.145 21.4173 340.395 22.7632 331.381 25.4734L308.687 32.4308C309.207 31.5048 312.276 27.7284 317.91 21.0843C322.331 15.9269 324.879 12.2386 325.521 10L327.601 10C328.728 15.7698 335.662 18.6548 348.405 18.6548C349.185 18.6548 350.797 18.7588 353.224 18.9864C355.651 19.2143 357.212 19.3185 357.904 19.3185C361.113 19.3185 366.139 18.8638 372.988 17.9378L388.4 15.9616C388.919 15.8751 389.803 16.224 391.069 17.0104C390.896 17.6754 389.995 18.2695 388.4 18.7945C386.528 19.4061 385.21 20.0526 384.429 20.7521C383.095 22.0286 382.418 24.0396 382.418 26.7847C382.418 27.7987 382.61 30.1057 383.008 33.7422C383.389 37.3614 383.58 39.6867 383.58 40.6833C383.58 41.6973 383.459 43.9174 383.234 47.3794C382.99 50.824 382.869 53.0442 382.869 54.0582C382.869 56.0172 383.026 60.5095 383.321 67.503C383.633 74.4973 383.788 78.9897 383.788 81.0004C383.788 82.8019 384.308 84.8473 385.349 87.1727C386.596 89.9698 388.035 91.2983 389.63 91.1584C389.544 91.3863 389.509 91.5606 389.509 91.6832C389.509 91.8231 389.544 91.8928 389.63 91.8928C389.856 92.0154 389.96 92.2431 389.96 92.5402C389.908 92.6801 389.803 92.7323 389.63 92.7323C388.763 92.7323 386.927 92.4175 384.135 91.7875C381.344 91.1583 379.557 90.844 378.778 90.844C375.259 90.844 368.306 91.8927 357.904 93.9913C358.165 92.7667 359.136 91.8578 360.835 91.2981C363.088 90.4587 364.476 89.4447 364.996 88.2213C365.81 86.2106 366.677 80.8432 367.597 72.1535C368.411 63.9715 368.827 58.2026 368.827 54.8448C368.827 52.3982 365.533 51.1735 358.946 51.1735C357.125 51.1735 355.009 51.2267 352.565 51.3135C348.145 51.4361 342.891 52.9751 336.772 55.8947C330.271 59.0411 326.058 62.3631 324.151 65.8597C323.336 67.4853 322.331 71.7694 321.169 78.7109C320.042 85.3539 319.47 89.8644 319.47 92.2244C319.47 106.299 324.597 118.985 334.812 130.321C345.309 141.971 354.718 147.016 368.501 147.016C372.811 147.016 376.447 146.185 379.602 144.428C386.418 140.637 389.662 135.864 389.662 129.658C389.662 124.202 387.979 119.883 384.6 116.72C381.22 113.556 376.729 111.964 371.13 111.964C367.663 111.964 364.533 113.041 361.716 115.181C358.778 117.411 357.296 120.006 357.296 122.979C357.296 125.199 358.158 127.459 359.913 129.727C361.675 132.004 363.502 133.137 365.409 133.137C368.182 133.137 369.57 131.983 369.57 129.658C369.57 128.696 368.182 127.35 365.409 125.601C367.489 123.538 369.275 122.524 370.748 122.524C371.788 122.524 372.916 123.137 374.128 124.359C375.343 125.584 375.949 126.719 375.949 127.77C375.949 129.99 374.11 131.894 370.419 133.469C367.471 134.725 364.698 135.375 362.097 135.375C358.423 135.375 354.888 134.372 351.506 132.42C347.47 130.09 345.455 127.262 345.455 123.888C345.455 119.691 348.575 116.088 354.817 113.083C360.19 110.495 365.183 109.202 369.777 109.202C376.487 109.202 382.952 110.952 389.142 114.446C396.421 118.556 400.064 123.696 400.064 129.85ZM368.705 41.1377L368.705 31.7139C368.705 29.827 367.458 26.5742 364.996 21.941C358.841 22.7282 352.791 25.4733 346.845 30.176C340.916 34.8614 336.061 40.6489 332.282 47.5022C339.875 44.6705 344.591 42.9566 346.463 42.397C351.89 40.7365 356.796 39.8971 361.216 39.8971C363.383 39.8971 365.88 40.3167 368.705 41.1377ZM446.911 68.2901C446.911 74.4095 445.489 79.3399 442.628 83.0459C440.062 86.2812 435.85 89.2179 429.955 91.8404C429.296 91.8404 428.308 91.9804 426.956 92.2951C425.621 92.5922 424.598 92.7495 423.905 92.7495C420.091 92.7495 416.849 91.666 414.162 89.4805L412.792 127.175C412.792 129.668 411.311 133.855 410.001 135.969C408.599 138.069 407.322 139.439 405.702 140.882C404.487 142.193 402.581 143.504 399.98 144.815C397.241 146.213 395.074 146.913 393.479 146.913C395.508 145.253 397.418 142.977 398.689 140.427C402.344 133.105 402.092 130.975 402.394 124.745C402.695 118.498 402.581 103.502 402.581 79.7769C402.581 78.9375 402.495 71.6644 402.32 57.9402C400.761 55.7547 398.94 54.6529 396.86 54.6529C396.479 54.6529 395.889 54.6873 395.108 54.7231C394.156 54.8099 393.445 54.8631 392.96 54.8631L392.439 53.8134C396.34 52.502 400.24 51.1907 404.141 49.8793C408.823 48.0789 412.341 46.1215 414.682 43.9709H416.035C415.948 46.4186 415.618 49.9673 415.063 54.6008C418.565 52.5898 420.715 51.4011 421.494 51.0509C424.009 49.9155 426.349 49.3559 428.516 49.3559C437.011 49.3559 442.628 53.3764 445.35 61.4197C446.39 64.5138 446.911 66.8044 446.911 68.2901ZM436.508 75.1087C436.508 70.9647 435.832 67.2057 434.497 63.8314C432.799 59.6353 430.337 56.9607 427.094 55.8068C423.836 54.6529 421.998 54.0582 421.564 54.0582C418.063 54.0582 415.86 56.1386 414.994 60.3001C414.908 60.5973 414.699 64.0595 414.352 70.6503C414.127 74.5842 414.023 77.4692 414.023 79.3053C414.023 83.5003 414.577 86.1759 415.704 87.3127C416.97 88.5708 419.952 89.2008 424.684 89.2008C428.014 89.2008 430.856 87.6791 433.196 84.6196C435.399 81.7345 436.508 78.5706 436.508 75.1087ZM520 92.4174C518.146 92.4174 513.985 92.4697 507.518 92.5923C501.069 92.6976 496.874 92.7495 494.967 92.7495C496.267 90.7735 497.949 88.8505 499.977 86.9795C503.011 84.0956 504.571 82.5738 504.658 82.4515C508.125 78.8147 509.858 74.1469 509.858 68.4126C509.858 59.9323 505.715 55.684 497.446 55.684C497.307 55.684 496.788 55.8586 495.885 56.2091L493.406 57.9749C493.805 59.4608 493.996 60.8424 493.996 62.118C493.996 65.1254 493.268 69.4444 491.811 75.0385C490.372 80.6338 488.934 84.8648 487.495 87.6964C486.679 89.2877 485.137 90.5642 482.883 91.5782C482.277 91.8756 481.444 92.4869 480.404 93.4144C483.404 87.4698 484.894 79.1653 484.894 68.4822C484.894 60.0377 480.751 55.824 472.481 55.824C472.343 55.824 471.822 55.9989 470.921 56.3491L470.21 57.4684C468.252 57.6429 467.176 59.4781 466.951 62.9747V65.1428C466.951 68.9896 466.986 72.4865 467.073 75.6326C467.124 78.3431 467.229 81.8918 467.402 86.2625C467.974 86.525 470.002 87.8535 473.521 90.2496L473.314 92.7495C472.707 92.6976 471.597 92.4002 469.968 91.8232C468.338 91.2636 467.281 90.9837 466.76 90.9837C461.872 90.9837 458.681 91.5607 457.208 92.7495C454.868 92.7495 453.134 92.5749 452.007 92.2244C452.389 91.5606 453.395 90.8612 454.989 90.1271C456.463 89.4275 457.451 88.2735 457.919 86.6476C458.145 85.9481 458.248 82.7844 458.248 77.137C458.248 76.2271 458.335 74.2173 458.508 71.1047C458.681 68.0102 458.768 66.0169 458.768 65.1428C458.768 65.9822 458.63 62.3455 458.369 54.2503C458.109 53.989 457.208 53.6918 455.683 53.3762C454.14 53.0442 453.203 52.5898 452.857 52.0302V50.7895C453.238 50.2645 453.758 49.9501 454.417 49.8621C454.712 49.8102 455.353 49.8449 456.324 49.9675C457.295 50.0728 457.833 50.1247 457.919 50.1247C458.491 50.1247 459.722 50.0019 461.629 49.7582C463.536 49.5303 464.767 49.4077 465.339 49.4077C465.893 49.4077 466.726 49.8276 467.801 50.6498L467.991 51.436C467.991 51.6636 467.904 52.1355 467.731 52.8697C467.558 53.6211 467.471 54.0932 467.471 54.3208C467.471 54.5302 467.558 54.863 467.731 55.3C470.938 52.8523 473.036 51.401 474.042 50.9109C476.036 49.9154 478.636 49.4077 481.843 49.4077C483.178 49.4077 484.894 50.0727 486.975 51.4011C489.055 52.7471 490.754 54.1636 492.054 55.7015C495.123 53.2015 497.307 51.6278 498.607 50.9813C500.827 49.8794 503.548 49.3384 506.808 49.3384C509.616 49.3384 512.355 50.7363 514.991 53.5334C517.643 56.3316 518.96 59.1462 518.96 61.9966C518.96 65.7199 516.88 70.6154 512.719 76.6826C508.87 82.3647 505.161 86.5079 501.606 89.0782L503.167 89.4805C505.074 89.3406 507.536 88.4307 510.569 86.718C513.482 85.0564 516.03 83.1858 518.249 81.0883C518.682 83.6228 519.272 87.3991 520 92.4174Z" fill="white"/>
<path fill-rule="evenodd" clip-rule="evenodd" d="M259.521 110.443C259.295 111.002 258.046 111.789 255.74 112.804C252.967 113.975 251.459 114.674 251.199 114.901C250.366 114.901 249.084 115.006 247.333 115.198C245.565 115.391 244.333 115.495 243.588 115.495C222.317 115.495 205.968 110.478 194.578 100.425C191.926 98.0651 187.817 92.9415 182.218 85.074C180.224 82.3291 177.45 77.6089 173.896 70.9125C170.567 64.7588 167.724 60.0724 165.384 56.8914C164.118 55.7015 162.298 53.8492 159.923 51.3135C156.109 53.8492 154.098 55.3001 153.908 55.6668C153.716 56.0519 153.613 58.4812 153.613 62.9747C153.613 63.9368 153.509 66.1394 153.283 69.5665C153.058 72.9927 152.954 75.1957 152.954 76.1578C152.954 85.4763 155.19 90.2325 159.645 90.4589C159.559 91.2811 159.177 92.05 158.484 92.7495L133 92.7495V89.7245C133.953 88.8504 134.941 88.011 135.981 87.1727C137.108 86.0881 137.802 84.9699 138.062 83.833C139.275 81.945 139.882 69.6015 139.882 46.7852C139.882 37.1346 139.362 30.5428 138.322 27.0462C137.941 25.7878 136.224 23.8462 133.19 21.2237L133.19 18.2697L158.796 18.2697C159.489 18.8815 159.871 19.6155 159.905 20.4896C157.617 21.0146 155.849 22.8323 154.636 25.9452C153.648 28.3399 153.144 30.9278 153.144 33.6726C153.144 35.7355 153.231 38.8485 153.404 43.0435L153.682 52.362C156.923 50.3871 161.258 45.8059 166.684 38.586C172.405 31.0329 175.266 25.648 175.266 22.4658C175.266 21.504 175.04 20.6657 174.607 19.9659C177.034 19.5288 181.663 19.3185 188.458 19.3185C190.418 19.3185 192.897 18.7946 195.931 17.7446L196.45 18.9173C193.503 21.9769 189.048 26.5916 183.067 32.7641C177.987 37.8343 173.133 41.9772 168.505 45.2116C171.972 49.2851 175.699 54.9328 179.686 62.1885C184.835 71.5073 188.181 77.2771 189.69 79.4972C193.903 85.7562 198.583 90.7559 203.732 94.5153C218.901 105.653 234.209 111.23 249.638 111.23C251.286 111.23 254.579 110.967 259.521 110.443ZM251.858 69.7933C251.858 80.022 247.437 86.9796 238.596 90.6522C235.215 92.0501 233.1 92.7495 232.233 92.7495L221.172 92.7495C217.498 92.7495 213.943 90.3722 210.51 85.5988C207.216 81.1055 205.57 76.9092 205.57 73.0102C205.57 67.7654 206.853 63.2027 209.402 59.3034C211.967 55.4217 215.625 52.6245 220.393 50.9109C224.206 49.513 227.171 48.8136 229.303 48.8136C235.024 48.8136 240.208 50.9639 244.871 55.2642C249.535 59.583 251.858 64.4257 251.858 69.7933ZM241.456 71.4377C241.456 67.0136 240.295 62.888 237.954 59.0412C235.267 54.7233 231.834 52.5553 227.673 52.5553C223.999 52.5553 221.068 55.003 218.901 59.8978C217.167 63.7796 216.301 67.8531 216.301 72.0842C216.301 75.3183 216.717 77.8009 217.532 79.4972C218.832 82.1716 220.444 84.445 222.351 86.3158C224.727 88.728 227.119 89.9177 229.494 89.9177C229.806 89.9177 230.447 89.8644 231.453 89.7591C232.441 89.6553 233.117 89.6019 233.464 89.6019C233.984 89.6019 235.129 88.5012 236.914 86.3158C239.948 82.6089 241.456 77.6436 241.456 71.4377ZM260.891 92.1554C259.591 91.858 258.498 91.8927 257.614 92.2602C256.713 92.6268 256.036 93.0294 255.569 93.4665L254.719 91.1756L260.561 88.8853C260.821 87.5219 261.03 86.2983 261.186 85.179C261.341 84.0598 261.463 82.9233 261.566 81.7706C261.671 80.6164 261.758 79.3744 261.792 78.0633C261.844 76.7519 261.861 75.1955 261.861 73.4125C261.861 70.1265 261.809 66.787 261.705 63.3426C261.602 59.9153 261.497 56.4544 261.41 52.9578C261.115 51.9436 260.648 51.0162 260.006 50.1418C259.382 49.2678 258.567 48.5163 257.58 47.9045V46.6627C264.739 44.9492 269.542 41.8026 272.021 37.2214H273.511V39.4427C273.511 40.1411 273.372 40.9632 273.112 41.9079C272.853 42.8515 272.661 43.9536 272.54 45.2116C272.488 45.4392 272.454 45.6315 272.437 45.806C272.42 45.9817 272.401 46.1737 272.401 46.4001C273.321 45.9989 274.083 45.7017 274.743 45.4741C275.383 45.2647 276.024 45.1074 276.632 44.9848C277.239 44.8795 277.88 44.8103 278.539 44.7918C279.215 44.7745 280.046 44.7569 281.052 44.7569C284.346 44.7569 286.999 45.3166 289.01 46.4362C291.02 47.5543 292.72 49.2158 294.107 51.4532C295.025 52.8523 295.563 53.9358 295.702 54.6873C295.858 55.4575 295.927 56.1919 295.927 56.8914C295.927 58.761 295.286 60.5452 293.986 62.2056C292.685 63.8661 291.073 65.3174 289.166 66.5939C291.818 67.7654 293.917 69.0593 295.441 70.4584C296.985 71.8564 298.146 73.3432 298.926 74.9157C299.707 76.4893 300.192 78.1337 300.365 79.829C300.538 81.5426 300.574 83.2912 300.486 85.074C300.365 87.3128 299.481 89.0782 297.886 90.355C296.274 91.6476 294.246 92.6097 291.767 93.2386C289.305 93.8862 286.566 94.2354 283.584 94.2885C280.584 94.358 277.638 94.2885 274.743 94.0606C271.829 93.8515 269.143 93.5543 266.681 93.1865C264.202 92.8013 262.277 92.4698 260.891 92.1554ZM272.87 84.357C273.165 87.8897 273.945 90.1097 275.21 90.9837C275.904 91.0706 276.735 91.1236 277.741 91.1409C278.729 91.1582 279.926 91.1756 281.312 91.1756C282.907 91.1756 284.329 90.9135 285.56 90.3896C286.791 89.8646 287.831 89.1822 288.68 88.3266C289.53 87.4699 290.136 86.5252 290.535 85.5112C290.917 84.4796 291.073 83.4311 290.986 82.3822C290.518 77.4516 288.733 74.0244 285.664 72.136C282.595 70.2304 277.984 69.9506 271.829 71.3151C271.882 72.9236 271.934 74.3215 271.986 75.4754C272.055 76.6296 272.142 77.6968 272.245 78.6577C272.367 79.6197 272.454 80.546 272.54 81.4373C272.627 82.329 272.731 83.3084 272.87 84.357ZM271.69 63.3077V67.9585C272.905 67.8705 274.015 67.7653 275.002 67.6427C276.007 67.5028 276.927 67.3815 277.759 67.2762C278.608 67.1709 279.44 67.0655 280.238 66.9443C281.035 66.839 281.867 66.7337 282.734 66.6468C284.122 65.9995 285.248 65.108 286.08 64.0061C286.93 62.8879 287.363 61.6288 287.363 60.2297C287.363 58.7798 287.103 57.4326 286.6 56.1561C286.114 54.8981 285.439 53.7439 284.589 52.7299C283.74 51.6986 282.769 50.8241 281.66 50.1072C280.567 49.373 279.406 48.8654 278.193 48.551C277.446 48.3762 276.528 48.3763 275.401 48.5338C274.274 48.6737 273.182 48.8655 272.142 49.0761C271.968 51.4361 271.847 53.7961 271.795 56.1561C271.726 58.5173 271.69 60.9119 271.69 63.3077ZM400.064 129.85C400.064 136.458 392.814 143.669 387.47 146.185C383.069 148.256 379.321 150.701 370.873 150.969C357.046 151.409 346.369 147.133 334.883 139.431C323.088 131.521 315.049 121.091 310.768 108.153C310.16 106.457 309.293 103.887 308.167 100.477C307.248 97.6452 306.797 95.0226 306.797 92.6095C306.797 77.8887 311.738 63.4475 321.62 49.2852C331.501 35.124 343.1 25.8918 356.414 21.6088C355.893 21.4862 355.304 21.4173 354.663 21.4173C348.145 21.4173 340.395 22.7632 331.381 25.4734L308.687 32.4308C309.207 31.5048 312.276 27.7284 317.91 21.0843C322.331 15.9269 324.879 12.2386 325.521 10L327.601 10C328.728 15.7698 335.662 18.6548 348.405 18.6548C349.185 18.6548 350.797 18.7588 353.224 18.9864C355.651 19.2143 357.212 19.3185 357.904 19.3185C361.113 19.3185 366.139 18.8638 372.988 17.9378L388.4 15.9616C388.919 15.8751 389.803 16.224 391.069 17.0104C390.896 17.6754 389.995 18.2695 388.4 18.7945C386.528 19.4061 385.21 20.0526 384.429 20.7521C383.095 22.0286 382.418 24.0396 382.418 26.7847C382.418 27.7987 382.61 30.1057 383.008 33.7422C383.389 37.3614 383.58 39.6867 383.58 40.6833C383.58 41.6973 383.459 43.9174 383.234 47.3794C382.99 50.824 382.869 53.0442 382.869 54.0582C382.869 56.0172 383.026 60.5095 383.321 67.503C383.633 74.4973 383.788 78.9897 383.788 81.0004C383.788 82.8019 384.308 84.8473 385.349 87.1727C386.596 89.9698 388.035 91.2983 389.63 91.1584C389.544 91.3863 389.509 91.5606 389.509 91.6832C389.509 91.8231 389.544 91.8928 389.63 91.8928C389.856 92.0154 389.96 92.2431 389.96 92.5402C389.908 92.6801 389.803 92.7323 389.63 92.7323C388.763 92.7323 386.927 92.4175 384.135 91.7875C381.344 91.1583 379.557 90.844 378.778 90.844C375.259 90.844 368.306 91.8927 357.904 93.9913C358.165 92.7667 359.136 91.8578 360.835 91.2981C363.088 90.4587 364.476 89.4447 364.996 88.2213C365.81 86.2106 366.677 80.8432 367.597 72.1535C368.411 63.9715 368.827 58.2026 368.827 54.8448C368.827 52.3982 365.533 51.1735 358.946 51.1735C357.125 51.1735 355.009 51.2267 352.565 51.3135C348.145 51.4361 342.891 52.9751 336.772 55.8947C330.271 59.0411 326.058 62.3631 324.151 65.8597C323.336 67.4853 322.331 71.7694 321.169 78.7109C320.042 85.3539 319.47 89.8644 319.47 92.2244C319.47 106.299 324.597 118.985 334.812 130.321C345.309 141.971 354.718 147.016 368.501 147.016C372.811 147.016 376.447 146.185 379.602 144.428C386.418 140.637 389.662 135.864 389.662 129.658C389.662 124.202 387.979 119.883 384.6 116.72C381.22 113.556 376.729 111.964 371.13 111.964C367.663 111.964 364.533 113.041 361.716 115.181C358.778 117.411 357.296 120.006 357.296 122.979C357.296 125.199 358.158 127.459 359.913 129.727C361.675 132.004 363.502 133.137 365.409 133.137C368.182 133.137 369.57 131.983 369.57 129.658C369.57 128.696 368.182 127.35 365.409 125.601C367.489 123.538 369.275 122.524 370.748 122.524C371.788 122.524 372.916 123.137 374.128 124.359C375.343 125.584 375.949 126.719 375.949 127.77C375.949 129.99 374.11 131.894 370.419 133.469C367.471 134.725 364.698 135.375 362.097 135.375C358.423 135.375 354.888 134.372 351.506 132.42C347.47 130.09 345.455 127.262 345.455 123.888C345.455 119.691 348.575 116.088 354.817 113.083C360.19 110.495 365.183 109.202 369.777 109.202C376.487 109.202 382.952 110.952 389.142 114.446C396.421 118.556 400.064 123.696 400.064 129.85ZM368.705 41.1377L368.705 31.7139C368.705 29.827 367.458 26.5742 364.996 21.941C358.841 22.7282 352.791 25.4733 346.845 30.176C340.916 34.8614 336.061 40.6489 332.282 47.5022C339.875 44.6705 344.591 42.9566 346.463 42.397C351.89 40.7365 356.796 39.8971 361.216 39.8971C363.383 39.8971 365.88 40.3167 368.705 41.1377ZM446.911 68.2901C446.911 74.4095 445.489 79.3399 442.628 83.0459C440.062 86.2812 435.85 89.2179 429.955 91.8404C429.296 91.8404 428.308 91.9804 426.956 92.2951C425.621 92.5922 424.598 92.7495 423.905 92.7495C420.091 92.7495 416.849 91.666 414.162 89.4805L412.792 127.175C412.792 129.668 411.311 133.855 410.001 135.969C408.599 138.069 407.322 139.439 405.702 140.882C404.487 142.193 402.581 143.504 399.98 144.815C397.241 146.213 395.074 146.913 393.479 146.913C395.508 145.253 397.418 142.977 398.689 140.427C402.344 133.105 402.092 130.975 402.394 124.745C402.695 118.498 402.581 103.502 402.581 79.7769C402.581 78.9375 402.495 71.6644 402.32 57.9402C400.761 55.7547 398.94 54.6529 396.86 54.6529C396.479 54.6529 395.889 54.6873 395.108 54.7231C394.156 54.8099 393.445 54.8631 392.96 54.8631L392.439 53.8134C396.34 52.502 400.24 51.1907 404.141 49.8793C408.823 48.0789 412.341 46.1215 414.682 43.9709H416.035C415.948 46.4186 415.618 49.9673 415.063 54.6008C418.565 52.5898 420.715 51.4011 421.494 51.0509C424.009 49.9155 426.349 49.3559 428.516 49.3559C437.011 49.3559 442.628 53.3764 445.35 61.4197C446.39 64.5138 446.911 66.8044 446.911 68.2901ZM436.508 75.1087C436.508 70.9647 435.832 67.2057 434.497 63.8314C432.799 59.6353 430.337 56.9607 427.094 55.8068C423.836 54.6529 421.998 54.0582 421.564 54.0582C418.063 54.0582 415.86 56.1386 414.994 60.3001C414.908 60.5973 414.699 64.0595 414.352 70.6503C414.127 74.5842 414.023 77.4692 414.023 79.3053C414.023 83.5003 414.577 86.1759 415.704 87.3127C416.97 88.5708 419.952 89.2008 424.684 89.2008C428.014 89.2008 430.856 87.6791 433.196 84.6196C435.399 81.7345 436.508 78.5706 436.508 75.1087ZM520 92.4174C518.146 92.4174 513.985 92.4697 507.518 92.5923C501.069 92.6976 496.874 92.7495 494.967 92.7495C496.267 90.7735 497.949 88.8505 499.977 86.9795C503.011 84.0956 504.571 82.5738 504.658 82.4515C508.125 78.8147 509.858 74.1469 509.858 68.4126C509.858 59.9323 505.715 55.684 497.446 55.684C497.307 55.684 496.788 55.8586 495.885 56.2091L493.406 57.9749C493.805 59.4608 493.996 60.8424 493.996 62.118C493.996 65.1254 493.268 69.4444 491.811 75.0385C490.372 80.6338 488.934 84.8648 487.495 87.6964C486.679 89.2877 485.137 90.5642 482.883 91.5782C482.277 91.8756 481.444 92.4869 480.404 93.4144C483.404 87.4698 484.894 79.1653 484.894 68.4822C484.894 60.0377 480.751 55.824 472.481 55.824C472.343 55.824 471.822 55.9989 470.921 56.3491L470.21 57.4684C468.252 57.6429 467.176 59.4781 466.951 62.9747V65.1428C466.951 68.9896 466.986 72.4865 467.073 75.6326C467.124 78.3431 467.229 81.8918 467.402 86.2625C467.974 86.525 470.002 87.8535 473.521 90.2496L473.314 92.7495C472.707 92.6976 471.597 92.4002 469.968 91.8232C468.338 91.2636 467.281 90.9837 466.76 90.9837C461.872 90.9837 458.681 91.5607 457.208 92.7495C454.868 92.7495 453.134 92.5749 452.007 92.2244C452.389 91.5606 453.395 90.8612 454.989 90.1271C456.463 89.4275 457.451 88.2735 457.919 86.6476C458.145 85.9481 458.248 82.7844 458.248 77.137C458.248 76.2271 458.335 74.2173 458.508 71.1047C458.681 68.0102 458.768 66.0169 458.768 65.1428C458.768 65.9822 458.63 62.3455 458.369 54.2503C458.109 53.989 457.208 53.6918 455.683 53.3762C454.14 53.0442 453.203 52.5898 452.857 52.0302V50.7895C453.238 50.2645 453.758 49.9501 454.417 49.8621C454.712 49.8102 455.353 49.8449 456.324 49.9675C457.295 50.0728 457.833 50.1247 457.919 50.1247C458.491 50.1247 459.722 50.0019 461.629 49.7582C463.536 49.5303 464.767 49.4077 465.339 49.4077C465.893 49.4077 466.726 49.8276 467.801 50.6498L467.991 51.436C467.991 51.6636 467.904 52.1355 467.731 52.8697C467.558 53.6211 467.471 54.0932 467.471 54.3208C467.471 54.5302 467.558 54.863 467.731 55.3C470.938 52.8523 473.036 51.401 474.042 50.9109C476.036 49.9154 478.636 49.4077 481.843 49.4077C483.178 49.4077 484.894 50.0727 486.975 51.4011C489.055 52.7471 490.754 54.1636 492.054 55.7015C495.123 53.2015 497.307 51.6278 498.607 50.9813C500.827 49.8794 503.548 49.3384 506.808 49.3384C509.616 49.3384 512.355 50.7363 514.991 53.5334C517.643 56.3316 518.96 59.1462 518.96 61.9966C518.96 65.7199 516.88 70.6154 512.719 76.6826C508.87 82.3647 505.161 86.5079 501.606 89.0782L503.167 89.4805C505.074 89.3406 507.536 88.4307 510.569 86.718C513.482 85.0564 516.03 83.1858 518.249 81.0883C518.682 83.6228 519.272 87.3991 520 92.4174Z" fill="#AB835F"/>
<path fill-rule="evenodd" clip-rule="evenodd" d="M49.1588 0C51.4815 14.1301 64.4222 23.0615 70.4035 32.23C82.1442 50.2244 63.4878 55.1202 53.511 60.1354C41.751 66.0466 21.2473 70.4062 16.9811 83.781C12.6137 97.4726 23.8165 103.31 31.1286 107C10.1897 74.7492 72.7995 75.7541 82.6506 55.875C89.0872 42.8846 81.1437 34.3654 72.7262 24.5615C67.9415 18.9878 50.3244 4.70445 49.1588 0Z" fill="#1B1918"/>
<path fill-rule="evenodd" clip-rule="evenodd" d="M84.515 59C101.044 72.4779 77.7278 82.489 60.5945 92.7915C43.6355 102.99 45.5867 119.169 50.2875 135C52.8562 119.082 49.8326 109.962 68.6965 98.2044C77.3156 92.8334 87.8301 89.1813 93.1254 83.9215C101.508 75.5949 89.3684 62.9877 84.515 59Z" fill="#1B1918"/>
<path fill-rule="evenodd" clip-rule="evenodd" d="M18.6725 77C3.15348 69.117 2.92513 56.6986 12.381 49.935C18.6946 45.4189 26.89 42.4106 33.7721 39.2793C43.3727 34.9119 50.3434 31.3231 48.8632 0L52.0504 8.15328C55.5806 16.6677 56.7033 23.3814 55.5827 30.5417C54.6525 36.4829 47.2968 42.6086 42.79 44.8201C34.106 49.081 23.4219 51.9253 16.3657 55.6886C13.8241 57.0436 9.70316 61.9787 11.1227 66.5577C12.0935 69.6893 14.5182 73.164 18.6725 77Z" fill="#1B1918"/>
<path fill-rule="evenodd" clip-rule="evenodd" d="M85 93C82.3433 104.599 77.7397 102.797 68.2752 109.318C63.1225 112.868 51.3855 127.268 51 136C52.8749 126.435 62.3767 120.329 73.8782 114.98C81.8389 111.099 85 101.611 85 93Z" fill="#1B1918"/>
<path d="M87.4281 88C90.0876 86.3138 92.6116 81.6091 93.0669 80.4071C95.2319 74.6951 90.5614 64.6823 86.7835 61.2726C79.7512 54.9278 69.6264 50.3215 61.4949 45.9653C43.4702 36.3085 32.6728 21.6864 49.1075 0C44.1968 26.5843 61.0953 32.7628 78.0087 41.7998C89.3816 47.8758 100.552 58.2211 99.9788 68.7139C99.6818 74.1591 97.1084 83.0365 87.4281 88Z" fill="#AB835F"/>
<path d="M50.439 137C49.8683 129.833 52.6858 124.536 51.5717 117.169C49.5535 103.82 44.786 101.938 37.127 97.2246C27.1588 91.0888 1.7154 84.9537 0.24066 71.3391C-1.03334 59.5799 2.61882 52.8477 14.3629 48C-10.9363 66.0407 24.4709 76.7278 39.6993 84.5568C48.02 88.8341 58.2823 96.038 57.9941 114.198C57.8048 126.121 51.7037 126.778 50.439 137Z" fill="#AB835F"/>
<path d="M16 91C19.8553 101.912 23.1999 100.045 32.3681 107.348C37.2316 111.223 49.6178 127.292 50 136C48.1409 126.461 38.2168 119.059 26.8123 113.724C18.8473 109.999 16 99.5881 16 91Z" fill="#AB835F"/>
<path d="M75.6278 96.9823C76.6956 79.8816 34.3061 68.6718 22.9474 61.1961C-7.1382 41.3938 32.7181 17.6351 47.8064 0C33.3416 25.6305 9.7103 42.9106 37.1306 54.5036C57.9261 63.2951 88.4986 76.966 84.6728 98.9542C83.3275 106.688 79.0135 113.748 67.4048 118C75.1162 109.283 74.9912 107.185 75.6278 96.9823Z" fill="#AB835F"/>
</svg>
